<svg width="92" height="92" viewBox="0 0 92 92" fill="none" xmlns="http://www.w3.org/2000/svg">
<path d="M84.3307 45.9994C84.3307 67.1689 67.167 84.3327 45.9974 84.3327C24.8278 84.3327 7.66406 67.1689 7.66406 45.9994C7.66406 24.8298 24.8278 7.66602 45.9974 7.66602C67.167 7.66602 84.3307 24.8298 84.3307 45.9994Z" fill="url(#paint0_radial_627_1168)"/>
<path d="M61.7133 42.4708L56.408 58.7969C56.1511 59.5866 55.4151 60.1213 54.5852 60.1213H37.4215C36.5916 60.1213 35.8556 59.5866 35.5987 58.7969L30.2934 42.4708C30.0366 41.6811 30.3183 40.8167 30.9891 40.3279L44.8754 30.2386C45.5462 29.7498 46.4566 29.7498 47.1294 30.2386L61.0156 40.3279C61.6884 40.8167 61.9682 41.6811 61.7133 42.4708ZM59.2006 10.0484C55.0816 8.53427 50.6484 7.66602 46.0024 7.66602C41.3564 7.66602 36.9231 8.53427 32.8042 10.0484L45.1265 16.3926C45.6766 16.6763 46.3301 16.6763 46.8802 16.3926L59.2006 10.0484ZM82.4574 34.1543C81.0237 29.7364 78.8272 25.7881 76.1132 22.3381L73.888 36.0173C73.7883 36.6288 73.9896 37.2498 74.4304 37.6868L84.2706 47.4445C84.4373 43.0573 83.893 38.5723 82.4574 34.1543ZM15.8877 22.3381C13.1737 25.79 10.9791 29.7364 9.54356 34.1543C8.10606 38.5723 7.56556 43.0553 7.73231 47.4445L17.5725 37.6868C18.0114 37.2517 18.2146 36.6288 18.1149 36.0173L15.8877 22.3381ZM14.1915 67.328C16.6352 70.9754 19.7115 74.2817 23.4701 77.0148C27.2286 79.7461 31.3246 81.6455 35.5489 82.8434L29.3082 70.4694C29.0303 69.9174 28.5013 69.5322 27.888 69.4383L14.1915 67.328ZM56.4559 82.8415C60.6783 81.6455 64.7761 79.7403 68.5347 77.011C72.2933 74.2817 75.3676 70.9716 77.8133 67.3261L64.1149 69.4363C63.5035 69.5303 62.9745 69.9155 62.6946 70.4675L56.4559 82.8415Z" fill="url(#paint1_linear_627_1168)"/>
<defs>
<radialGradient id="paint0_radial_627_1168" cx="0" cy="0" r="1" gradientUnits="userSpaceOnUse" gradientTransform="translate(19.2829 18.0888) scale(78.4223)">
<stop stop-color="#F0F0F0"/>
<stop offset="1" stop-color="#7D7D7D"/>
</radialGradient>
<linearGradient id="paint1_linear_627_1168" x1="31.9111" y1="11.0432" x2="60.6975" y2="80.3958" gradientUnits="userSpaceOnUse">
<stop stop-color="#6D7479"/>
<stop offset="1" stop-color="#323538"/>
</linearGradient>
</defs>
</svg>
