<svg width="56" height="56" viewBox="0 0 56 56" fill="none" xmlns="http://www.w3.org/2000/svg">
<path d="M33.463 12.7959L22.3945 16.8205L23.1919 19.0134L34.2603 14.9888L33.463 12.7959Z" fill="#559ED6"/>
<path d="M41.0126 21.7363L36.9883 32.805L39.1811 33.6021L43.2054 22.5335L41.0126 21.7363Z" fill="#559ED6"/>
<path d="M23.559 16.4975L8.6886 21.9727C8.3561 22.0952 8.0971 22.3623 7.9851 22.6983L6.0951 28.3683C5.93643 28.8443 6.09976 29.3693 6.50226 29.6703L10.4958 32.6663V38.4997C10.4958 39.1437 11.0184 39.6663 11.6624 39.6663H16.3291V44.333C16.3291 44.977 16.8518 45.4997 17.4958 45.4997H23.3291L27.4521 49.6227C27.7823 49.9528 28.277 50.0543 28.7098 49.8805L33.3508 48.0243C33.6553 47.903 33.8945 47.658 34.01 47.3512L39.5995 32.447C39.7605 32.0177 39.6543 31.5335 39.3288 31.2092L24.784 16.7647C24.462 16.445 23.9848 16.3412 23.559 16.4975Z" fill="url(#paint0_linear_627_1176)"/>
<path d="M23.3355 45.4999L24.165 46.3294L44.7251 15.2261L42.7791 13.9404L21.918 45.4999H23.3355Z" fill="#559ED6"/>
<path d="M16.3333 39.6666V41.3163L43.4081 14.2415L41.7584 12.5918L14.6836 39.6666H16.3333Z" fill="#559ED6"/>
<path d="M10.5014 32.667L9.67188 31.8375L40.7753 11.2773L42.0609 13.2233L10.5014 34.0845V32.667Z" fill="#559ED6"/>
<path d="M42.5833 20.9997C46.7716 20.9997 50.1667 17.6046 50.1667 13.4163C50.1667 9.22818 46.7716 5.83301 42.5833 5.83301C38.3951 5.83301 35 9.22818 35 13.4163C35 17.6046 38.3951 20.9997 42.5833 20.9997Z" fill="url(#paint1_linear_627_1176)"/>
<path d="M31.8594 13.4159L42.5834 24.1399L47.5335 19.1909L36.8084 8.46582L31.8594 13.4159Z" fill="url(#paint2_linear_627_1176)"/>
<defs>
<linearGradient id="paint0_linear_627_1176" x1="32.1468" y1="23.8627" x2="14.004" y2="42.0055" gradientUnits="userSpaceOnUse">
<stop stop-color="#33BEF0"/>
<stop offset="1" stop-color="#22A5E2"/>
</linearGradient>
<linearGradient id="paint1_linear_627_1176" x1="37.548" y1="8.38101" x2="49.1132" y2="19.9462" gradientUnits="userSpaceOnUse">
<stop stop-color="#F0F0F0"/>
<stop offset="1" stop-color="#BBC1C4"/>
</linearGradient>
<linearGradient id="paint2_linear_627_1176" x1="39.6961" y1="8.94466" x2="39.6958" y2="25.8481" gradientUnits="userSpaceOnUse">
<stop stop-color="#42A3F2"/>
<stop offset="1" stop-color="#42A4EB"/>
</linearGradient>
</defs>
</svg>
