<svg width="333" height="57" viewBox="0 0 333 57" fill="none" xmlns="http://www.w3.org/2000/svg">
<path d="M124.03 42.7766C124.03 45.3807 123.799 47.4388 123.337 48.9509C122.917 50.463 122.14 51.8071 121.006 52.9831C119.116 54.9572 116.008 55.9443 111.682 55.9443H98.7031V11.0859H111.682C115.924 11.0859 119.053 12.052 121.069 13.9841C122.161 15.0341 122.917 16.2522 123.337 17.6383C123.799 18.9823 124.03 20.8724 124.03 23.3086C124.03 26.7107 123.211 29.2309 121.573 30.869C120.943 31.499 120.25 32.003 119.494 32.381C120.376 32.8431 121.069 33.3681 121.573 33.9561C123.211 35.6362 124.03 38.5764 124.03 42.7766ZM114.076 46.5568C114.748 45.6748 115.084 44.1837 115.084 42.0836C115.084 39.9835 114.748 38.4924 114.076 37.6103C113.404 36.7283 112.207 36.2873 110.485 36.2873H107.65V47.8799H110.485C112.249 47.8799 113.446 47.4388 114.076 46.5568ZM115.084 23.9386C115.084 22.2165 114.769 20.9984 114.139 20.2844C113.509 19.5284 112.333 19.1504 110.611 19.1504H107.65V28.7268H110.611C112.291 28.7268 113.446 28.3488 114.076 27.5928C114.748 26.8367 115.084 25.6187 115.084 23.9386Z" fill="white"/>
<path d="M157.104 55.9443H147.78L142.298 38.4924H139.337V55.9443H130.391V11.0859H143.18C147.843 11.0859 151.077 12.22 152.883 14.4881C154.731 16.7562 155.655 20.1794 155.655 24.7576C155.655 27.5298 155.298 29.8819 154.584 31.814C153.912 33.7041 152.568 35.2792 150.552 36.5393L157.104 55.9443ZM146.708 24.7576C146.708 23.6656 146.645 22.7835 146.519 22.1115C146.435 21.3975 146.099 20.7254 145.511 20.0954C144.965 19.4654 144.167 19.1504 143.117 19.1504H139.337V30.4279H143.117C143.915 30.4279 144.566 30.2809 145.07 29.9869C145.616 29.6509 145.994 29.1679 146.204 28.5378C146.414 27.9078 146.54 27.3198 146.582 26.7737C146.666 26.2277 146.708 25.5557 146.708 24.7576Z" fill="white"/>
<path d="M186.213 21.8596C186.633 24.5478 186.843 28.4329 186.843 33.5152C186.843 38.5975 186.633 42.5037 186.213 45.2338C185.835 47.922 184.932 50.1481 183.504 51.9122C181.068 54.9363 177.792 56.4484 173.675 56.4484C169.559 56.4484 166.283 54.9363 163.847 51.9122C162.419 50.1481 161.495 47.922 161.075 45.2338C160.697 42.5037 160.508 38.5975 160.508 33.5152C160.508 28.4329 160.697 24.5478 161.075 21.8596C161.495 19.1295 162.419 16.8824 163.847 15.1183C166.283 12.0941 169.559 10.582 173.675 10.582C177.792 10.582 181.068 12.0941 183.504 15.1183C184.932 16.8824 185.835 19.1295 186.213 21.8596ZM176.7 46.6199C177.498 45.0658 177.897 40.6976 177.897 33.5152C177.897 26.3328 177.498 21.9646 176.7 20.4105C176.112 19.2345 175.104 18.6464 173.675 18.6464C172.247 18.6464 171.239 19.2345 170.651 20.4105C169.853 21.9646 169.454 26.3328 169.454 33.5152C169.454 40.6976 169.853 45.0658 170.651 46.6199C171.239 47.796 172.247 48.384 173.675 48.384C175.104 48.384 176.112 47.796 176.7 46.6199Z" fill="white"/>
<path d="M213.411 19.1504H205.851V55.9443H196.904V19.1504H189.344V11.0859H213.411V19.1504Z" fill="white"/>
<path d="M243.46 55.9443H234.514V37.1693H227.079V55.9443H218.133V11.0859H227.079V29.1049H234.514V11.0859H243.46V55.9443Z" fill="white"/>
<path d="M271.032 55.9443H250.367V11.0859H271.032V19.1504H259.314V29.2939H269.394V37.3583H259.314V47.8799H271.032V55.9443Z" fill="white"/>
<path d="M303.236 55.9443H293.911L288.43 38.4924H285.469V55.9443H276.523V11.0859H289.312C293.974 11.0859 297.209 12.22 299.015 14.4881C300.863 16.7562 301.787 20.1794 301.787 24.7576C301.787 27.5298 301.43 29.8819 300.716 31.814C300.044 33.7041 298.7 35.2792 296.684 36.5393L303.236 55.9443ZM292.84 24.7576C292.84 23.6656 292.777 22.7835 292.651 22.1115C292.567 21.3975 292.231 20.7254 291.643 20.0954C291.097 19.4654 290.299 19.1504 289.249 19.1504H285.469V30.4279H289.249C290.047 30.4279 290.698 30.2809 291.202 29.9869C291.748 29.6509 292.126 29.1679 292.336 28.5378C292.546 27.9078 292.672 27.3198 292.714 26.7737C292.798 26.2277 292.84 25.5557 292.84 24.7576Z" fill="white"/>
<path d="M332.141 43.1537C332.141 47.9 331.174 51.2181 329.242 53.1082C326.931 55.3343 323.677 56.4474 319.477 56.4474C315.193 56.4474 311.959 55.3553 309.775 53.1712C307.801 51.1971 306.812 47.879 306.812 43.2167H315.759C315.759 45.2328 316.074 46.5979 316.704 47.3119C317.334 48.026 318.259 48.383 319.477 48.383C320.779 48.383 321.723 48.005 322.311 47.2489C322.899 46.5349 323.194 45.2748 323.194 43.4687C323.194 41.3686 322.942 39.9615 322.438 39.2475C321.975 38.4915 320.926 37.7774 319.288 37.1054L313.617 34.7742C311.265 33.8082 309.607 32.5271 308.641 30.9311C307.675 29.335 307.19 26.8568 307.19 23.4967C307.19 19.1704 308.536 15.8523 311.224 13.5422C313.45 11.6521 316.201 10.707 319.477 10.707C323.341 10.707 326.281 11.6521 328.298 13.5422C330.608 15.6843 331.763 19.1494 331.763 23.9377H322.815C322.815 21.9216 322.564 20.5775 322.06 19.9055C321.514 19.1494 320.653 18.7714 319.477 18.7714C318.343 18.7714 317.481 19.1704 316.893 19.9685C316.389 20.6405 316.138 21.7116 316.138 23.1817C316.138 24.6097 316.326 25.6178 316.704 26.2058C317.082 26.7938 317.923 27.3609 319.225 27.9069L324.832 30.175C327.689 31.3511 329.621 32.8211 330.629 34.5852C331.637 36.3074 332.141 39.1635 332.141 43.1537Z" fill="white"/>
<path d="M25.3273 43.1537C25.3273 47.9 24.3613 51.2182 22.4292 53.1083C20.119 55.3344 16.8639 56.4474 12.6637 56.4474C8.37943 56.4474 5.14526 55.3554 2.96115 53.1713C0.987051 51.1972 0 47.879 0 43.2168H8.94646C8.94646 45.2329 9.26148 46.5979 9.89151 47.312C10.5215 48.026 11.4456 48.383 12.6637 48.383C13.9657 48.383 14.9108 48.005 15.4988 47.249C16.0868 46.5349 16.3808 45.2749 16.3808 43.4688C16.3808 41.3687 16.1288 39.9616 15.6248 39.2475C15.1628 38.4915 14.1127 37.7775 12.4746 37.1054L6.80435 34.7742C4.45223 33.8082 2.79314 32.5271 1.82709 30.9311C0.861044 29.335 0.378019 26.8568 0.378019 23.4967C0.378019 19.1704 1.72209 15.8523 4.41023 13.5422C6.63634 11.6521 9.38748 10.707 12.6637 10.707C16.5279 10.707 19.468 11.6521 21.4841 13.5422C23.7942 15.6843 24.9493 19.1494 24.9493 23.9377H16.0028C16.0028 21.9216 15.7508 20.5775 15.2468 19.9055C14.7008 19.1494 13.8397 18.7714 12.6637 18.7714C11.5296 18.7714 10.6685 19.1704 10.0805 19.9685C9.57649 20.6405 9.32448 21.7116 9.32448 23.1817C9.32448 24.6097 9.51349 25.6178 9.89151 26.2058C10.2695 26.7938 11.1096 27.3609 12.4116 27.9069L18.0189 30.175C20.8751 31.3511 22.8072 32.8211 23.8152 34.5852C24.8233 36.3074 25.3273 39.1635 25.3273 43.1537Z" fill="white"/>
<path d="M51.5869 55.9443H30.9219V11.0859H51.5869V19.1504H39.8683V29.2939H49.9488V37.3584H39.8683V47.8799H51.5869V55.9443Z" fill="white"/>
<path d="M80.0931 6.24839C77.7316 9.30985 76.2643 13.5716 76.1285 13.973L71.4375 12.347L76.1698 6.89316C76.719 6.26025 77.5555 5.93554 78.3973 6.04009L80.0931 6.24839ZM83.5335 19.4631C83.5335 19.4631 88.0988 17.1804 90.6112 14.2852C96.921 7.01346 95.4127 1.78748 94.9633 0.618817C93.7417 0.326351 88.3546 -0.416246 82.0448 6.85553C79.5328 9.75077 77.9167 14.5917 77.9167 14.5917L83.5335 19.4631ZM91.488 16.1312C88.7897 18.9007 84.7767 20.9545 84.3984 21.1457L86.6707 25.5592L91.4033 20.1054C91.9525 19.4725 92.1558 18.5987 91.9336 17.7804L91.488 16.1312ZM80.8933 20.9141C80.9675 21.9578 80.6066 22.9311 79.9755 23.6583C78.5968 25.2473 72.4463 26.5682 72.4463 26.5682C72.4463 26.5682 72.8859 20.2942 74.265 18.7052C74.754 18.1385 75.4004 17.7299 76.1225 17.5313C76.8443 17.3326 77.6091 17.353 78.3192 17.5897C79.0294 17.8264 79.6535 18.2688 80.1117 18.8607C80.5702 19.4526 80.8422 20.1673 80.8933 20.9141ZM85.1215 9.24059C85.0231 7.85745 86.0749 6.64548 87.4582 6.54734C88.8418 6.44919 90.054 7.50058 90.152 8.88371C90.2503 10.2669 89.1985 11.4788 87.8152 11.5769C86.4316 11.6751 85.2195 10.6237 85.1215 9.24059Z" fill="#409CFF"/>
<path fill-rule="evenodd" clip-rule="evenodd" d="M68.6076 10.5859C64.6366 10.6603 61.464 12.1714 59.0892 15.1192C57.6611 16.8833 56.737 19.1304 56.317 21.8605C55.939 24.5487 55.75 28.4339 55.75 33.5161C55.75 38.5984 55.939 42.5046 56.317 45.2348C56.737 47.9229 57.6611 50.149 59.0892 51.9131C61.5253 54.9373 64.8015 56.4494 68.9177 56.4494C73.0339 56.4494 76.3101 54.9373 78.7462 51.9131C80.1743 50.149 81.0773 47.9229 81.4553 45.2348C81.8753 42.5046 82.0853 38.5984 82.0853 33.5161C82.0853 32.4197 82.0755 31.379 82.0559 30.394H73.1105C73.1294 31.3678 73.1389 32.4085 73.1389 33.5161C73.1389 40.6985 72.7399 45.0668 71.9418 46.6208C71.3538 47.7969 70.3457 48.3849 68.9177 48.3849C67.4896 48.3849 66.4815 47.7969 65.8935 46.6208C65.0955 45.0668 64.6965 40.6985 64.6965 33.5161C64.6965 26.3338 65.0955 21.9655 65.8935 20.4115C66.4381 19.3225 67.3426 18.7376 68.6076 18.6571V10.5859Z" fill="white"/>
</svg>
